<svg width="11.000000" height="13.000000" viewBox="0 0 11 13" fill="none" xmlns="http://www.w3.org/2000/svg" xmlns:xlink="http://www.w3.org/1999/xlink">
	<desc>
			Created with Pixso.
	</desc>
	<defs/>
	<path id="Vector" d="M0 0.82L0 11.18C0 11.97 0.87 12.45 1.54 12.02L9.68 6.84C9.82 6.74 9.93 6.62 10.02 6.47C10.1 6.32 10.14 6.16 10.14 5.99C10.14 5.82 10.1 5.66 10.02 5.51C9.93 5.36 9.82 5.24 9.68 5.15L1.54 -0.02C1.38 -0.12 1.21 -0.18 1.03 -0.18C0.85 -0.19 0.67 -0.15 0.52 -0.06C0.36 0.02 0.23 0.15 0.13 0.3C0.04 0.46 -0.01 0.64 0 0.82Z" fill="#FFFFFF" fill-opacity="1.000000" fill-rule="nonzero"/>
</svg>
